fd_6_states
version=1
nRows=43
nColumns=17
inDegrees=yes

# SIMM Motion File Header:
name fd_6_states
datacolumns 17
datarows 43
otherdata 1
range 0.461613 0.477613
endheader
time	/jointset/r_shoulder/r_shoulder_elev/value	/jointset/r_shoulder/r_shoulder_elev/speed	/jointset/r_elbow/r_elbow_flex/value	/jointset/r_elbow/r_elbow_flex/speed	/forceset/TRIlong/activation	/forceset/TRIlong/fiber_length	/forceset/TRIlat/activation	/forceset/TRIlat/fiber_length	/forceset/TRImed/activation	/forceset/TRImed/fiber_length	/forceset/BIClong/activation	/forceset/BIClong/fiber_length	/forceset/BICshort/activation	/forceset/BICshort/fiber_length	/forceset/BRA/activation	/forceset/BRA/fiber_length
      0.461613	     -0.019137	     -0.398586	     93.544892	   -361.091497	      0.061350	      0.170829	      0.241745	      0.104754	      0.238972	      0.099772	      0.086367	      0.094317	      0.030020	      0.093818	      0.023088	      0.067047
      0.461983	     -0.019285	     -0.399707	     93.411303	   -361.400803	      0.061845	      0.170784	      0.240064	      0.104712	      0.237353	      0.099730	      0.085982	      0.094437	      0.029970	      0.093933	      0.023243	      0.067113
      0.462353	     -0.019432	     -0.398935	     93.277598	   -361.716308	      0.062310	      0.170739	      0.238401	      0.104671	      0.235751	      0.099688	      0.085600	      0.094558	      0.029920	      0.094048	      0.023386	      0.067153
      0.462806	     -0.019614	     -0.401358	     93.113381	   -362.087951	      0.062841	      0.170683	      0.236386	      0.104619	      0.233808	      0.099637	      0.085134	      0.094706	      0.029859	      0.094190	      0.023550	      0.067235
      0.463260	     -0.019796	     -0.400656	     92.948994	   -362.469901	      0.063332	      0.170627	      0.234396	      0.104568	      0.231890	      0.099585	      0.084672	      0.094854	      0.029798	      0.094331	      0.023700	      0.067280
      0.463625	     -0.019942	     -0.403492	     92.816860	   -362.761349	      0.063700	      0.170583	      0.232818	      0.104528	      0.230368	      0.099544	      0.084304	      0.094973	      0.029750	      0.094445	      0.023812	      0.067346
      0.463989	     -0.020089	     -0.404456	     92.684620	   -363.058759	      0.064046	      0.170538	      0.231255	      0.104487	      0.228862	      0.099503	      0.083938	      0.095092	      0.029701	      0.094559	      0.023916	      0.067385
      0.464436	     -0.020271	     -0.408905	     92.522267	   -363.408389	      0.064442	      0.170483	      0.229361	      0.104437	      0.227036	      0.099453	      0.083493	      0.095238	      0.029642	      0.094699	      0.024034	      0.067465
      0.464883	     -0.020454	     -0.410340	     92.359757	   -363.767596	      0.064809	      0.170429	      0.227492	      0.104387	      0.225232	      0.099402	      0.083051	      0.095384	      0.029584	      0.094838	      0.024143	      0.067512
      0.465250	     -0.020605	     -0.414827	     92.226217	   -364.047463	      0.065091	      0.170384	      0.225974	      0.104346	      0.223769	      0.099361	      0.082691	      0.095504	      0.029536	      0.094953	      0.024226	      0.067578
      0.465617	     -0.020758	     -0.417356	     92.092574	   -364.333388	      0.065355	      0.170339	      0.224472	      0.104305	      0.222320	      0.099320	      0.082333	      0.095624	      0.029489	      0.095068	      0.024304	      0.067618
      0.465984	     -0.020912	     -0.422135	     91.958828	   -364.608627	      0.065604	      0.170294	      0.222986	      0.104263	      0.220886	      0.099278	      0.081978	      0.095744	      0.029441	      0.095183	      0.024376	      0.067678
      0.466359	     -0.021071	     -0.425857	     91.821994	   -364.892769	      0.065842	      0.170248	      0.221482	      0.104221	      0.219435	      0.099236	      0.081617	      0.095867	      0.029393	      0.095301	      0.024445	      0.067725
      0.466734	     -0.021231	     -0.431444	     91.685054	   -365.167630	      0.066066	      0.170202	      0.219994	      0.104179	      0.217999	      0.099193	      0.081258	      0.095990	      0.029346	      0.095418	      0.024509	      0.067787
      0.467109	     -0.021394	     -0.435556	     91.548011	   -365.446395	      0.066276	      0.170156	      0.218521	      0.104137	      0.216578	      0.099151	      0.080902	      0.096113	      0.029298	      0.095536	      0.024569	      0.067833
      0.467484	     -0.021559	     -0.441685	     91.410865	   -365.715242	      0.066474	      0.170110	      0.217064	      0.104095	      0.215171	      0.099109	      0.080549	      0.096236	      0.029251	      0.095654	      0.024625	      0.067895
      0.467860	     -0.021725	     -0.446251	     91.273618	   -365.988275	      0.066659	      0.170064	      0.215622	      0.104053	      0.213779	      0.099066	      0.080197	      0.096359	      0.029204	      0.095771	      0.024677	      0.067941
      0.468235	     -0.021894	     -0.452830	     91.136269	   -366.251389	      0.066833	      0.170018	      0.214194	      0.104011	      0.212401	      0.099024	      0.079848	      0.096482	      0.029157	      0.095889	      0.024726	      0.068004
      0.468610	     -0.022065	     -0.457780	     90.998822	   -366.518892	      0.066997	      0.169972	      0.212781	      0.103969	      0.211037	      0.098981	      0.079501	      0.096605	      0.029110	      0.096007	      0.024771	      0.068049
      0.468985	     -0.022237	     -0.464721	     90.861275	   -366.776547	      0.067150	      0.169926	      0.211383	      0.103927	      0.209686	      0.098939	      0.079157	      0.096728	      0.029064	      0.096125	      0.024813	      0.068112
      0.469360	     -0.022413	     -0.469973	     90.723632	   -367.038782	      0.067294	      0.169881	      0.209999	      0.103885	      0.208349	      0.098896	      0.078815	      0.096851	      0.029018	      0.096243	      0.024853	      0.068157
      0.469735	     -0.022590	     -0.477192	     90.585891	   -367.291259	      0.067429	      0.169835	      0.208628	      0.103843	      0.207026	      0.098854	      0.078475	      0.096974	      0.028972	      0.096361	      0.024889	      0.068221
      0.470110	     -0.022770	     -0.482669	     90.448056	   -367.548464	      0.067569	      0.169789	      0.207281	      0.103800	      0.205722	      0.098811	      0.078137	      0.097097	      0.028926	      0.096479	      0.024917	      0.068266
      0.470486	     -0.022953	     -0.490006	     90.310125	   -367.796337	      0.067865	      0.169743	      0.206070	      0.103758	      0.204511	      0.098768	      0.077802	      0.097221	      0.028881	      0.096597	      0.024900	      0.068330
      0.470861	     -0.023138	     -0.495222	     90.172100	   -368.050531	      0.068206	      0.169696	      0.204918	      0.103715	      0.203345	      0.098725	      0.077469	      0.097344	      0.028836	      0.096715	      0.024875	      0.068375
      0.471236	     -0.023325	     -0.502240	     90.033982	   -368.295885	      0.068527	      0.169650	      0.203778	      0.103673	      0.202189	      0.098683	      0.077138	      0.097467	      0.028791	      0.096833	      0.024850	      0.068440
      0.471611	     -0.023514	     -0.507012	     89.895770	   -368.548239	      0.068829	      0.169604	      0.202649	      0.103630	      0.201045	      0.098640	      0.076809	      0.097591	      0.028746	      0.096951	      0.024826	      0.068485
      0.471986	     -0.023705	     -0.513609	     89.757465	   -368.791810	      0.069112	      0.169557	      0.201531	      0.103588	      0.199912	      0.098597	      0.076482	      0.097714	      0.028702	      0.097069	      0.024802	      0.068550
      0.472361	     -0.023899	     -0.517890	     89.619068	   -369.042686	      0.069377	      0.169511	      0.200423	      0.103545	      0.198789	      0.098553	      0.076158	      0.097837	      0.028658	      0.097187	      0.024778	      0.068595
      0.472736	     -0.024094	     -0.523967	     89.480577	   -369.284928	      0.069627	      0.169464	      0.199326	      0.103502	      0.197677	      0.098510	      0.075835	      0.097961	      0.028614	      0.097306	      0.024754	      0.068660
      0.473112	     -0.024291	     -0.527667	     89.341995	   -369.534670	      0.069861	      0.169418	      0.198240	      0.103459	      0.196576	      0.098467	      0.075515	      0.098084	      0.028570	      0.097424	      0.024730	      0.068704
      0.473487	     -0.024490	     -0.533121	     89.203320	   -369.775928	      0.070081	      0.169371	      0.197164	      0.103416	      0.195485	      0.098424	      0.075196	      0.098208	      0.028526	      0.097542	      0.024706	      0.068769
      0.473862	     -0.024691	     -0.536142	     89.064554	   -370.024839	      0.070288	      0.169325	      0.196097	      0.103373	      0.194405	      0.098380	      0.074880	      0.098331	      0.028483	      0.097661	      0.024682	      0.068814
      0.474237	     -0.024893	     -0.540874	     88.925696	   -370.265401	      0.070483	      0.169278	      0.195041	      0.103330	      0.193335	      0.098337	      0.074566	      0.098455	      0.028440	      0.097779	      0.024659	      0.068879
      0.474612	     -0.025096	     -0.543119	     88.786746	   -370.513745	      0.070665	      0.169232	      0.193995	      0.103286	      0.192274	      0.098294	      0.074254	      0.098578	      0.028397	      0.097897	      0.024635	      0.068924
      0.474987	     -0.025301	     -0.547033	     88.647704	   -370.753865	      0.070837	      0.169185	      0.192959	      0.103243	      0.191224	      0.098250	      0.073944	      0.098702	      0.028355	      0.098016	      0.024612	      0.068988
      0.475362	     -0.025506	     -0.548412	     88.508571	   -371.001876	      0.070998	      0.169139	      0.191932	      0.103200	      0.190184	      0.098206	      0.073636	      0.098826	      0.028312	      0.098134	      0.024589	      0.069033
      0.475738	     -0.025712	     -0.551420	     88.369347	   -371.241781	      0.071149	      0.169092	      0.190915	      0.103156	      0.189153	      0.098163	      0.073330	      0.098949	      0.028270	      0.098253	      0.024566	      0.069098
      0.476113	     -0.025919	     -0.551848	     88.230031	   -371.489676	      0.071292	      0.169046	      0.189907	      0.103113	      0.188132	      0.098119	      0.073026	      0.099073	      0.028228	      0.098371	      0.024543	      0.069143
      0.476488	     -0.026127	     -0.553869	     88.090623	   -371.729575	      0.071425	      0.168999	      0.188908	      0.103069	      0.187120	      0.098075	      0.072724	      0.099196	      0.028186	      0.098490	      0.024520	      0.069207
      0.476863	     -0.026334	     -0.553269	     87.951124	   -371.977553	      0.071551	      0.168953	      0.187919	      0.103026	      0.186117	      0.098032	      0.072423	      0.099320	      0.028145	      0.098608	      0.024498	      0.069252
      0.477238	     -0.026542	     -0.554227	     87.811533	   -372.217639	      0.071669	      0.168906	      0.186939	      0.102982	      0.185124	      0.097988	      0.072125	      0.099444	      0.028104	      0.098727	      0.024475	      0.069317
      0.477613	     -0.026750	     -0.552527	     87.671851	   -372.465886	      0.071780	      0.168860	      0.185968	      0.102938	      0.184140	      0.097944	      0.071829	      0.099567	      0.028062	      0.098846	      0.024452	      0.069362
